<svg xmlns="http://www.w3.org/2000/svg" xmlns:xlink="http://www.w3.org/1999/xlink" viewBox="0,0,255.98958,255.98958" width="48px" height="48px"><g fill="none" fill-rule="nonzero" stroke="none" stroke-width="1" stroke-linecap="butt" stroke-linejoin="miter" stroke-miterlimit="10" stroke-dasharray="" stroke-dashoffset="0" font-family="none" font-weight="none" font-size="none" text-anchor="none" style="mix-blend-mode: normal"><g transform="scale(5.33333,5.33333)"><path d="M29.862,4.875c-3.997,0.776 -8.451,0.656 -12.51,0.344c-1.976,-0.152 -3.962,-0.399 -5.932,-0.188c-1.97,0.211 -3.729,0.937 -5.039,2.423c-1.128,1.28 -1.643,3.004 -1.773,4.705c-0.13,1.701 0.091,3.406 0.267,5.103c0.525,5.049 0.123,10.14 -0.15,15.209c-0.117,2.176 -0.307,4.979 0.051,7.129c0.068,0.407 0.16,0.824 0.395,1.164c0.219,0.317 0.545,0.542 0.877,0.735c2.713,1.575 6.347,1.359 9.482,1.239c4.67,-0.178 9.352,-0.035 14.002,0.429c2.373,0.237 4.78,0.556 7.129,0.143c2.349,-0.413 4.686,-1.701 5.694,-3.863c0.613,-1.315 0.681,-3.415 0.738,-4.865c0.218,-5.517 0.16,-11.022 0.377,-16.539c0.056,-1.41 0.111,-2.826 -0.033,-4.23c-0.192,-1.873 -0.462,-3.707 -1.15,-5.459c-0.265,-0.674 -0.566,-1.362 -1.1,-1.852c-0.573,-0.526 -1.346,-0.764 -2.094,-0.977c-2.903,-0.828 -6.267,-1.225 -9.231,-0.65z" fill="#b81f2c"></path><path d="M34.176,44.009c-1.341,0 -2.68,-0.138 -3.991,-0.272l-0.702,-0.072c-4.62,-0.46 -9.308,-0.604 -13.933,-0.427l-0.403,0.016c-3.106,0.121 -6.628,0.258 -9.349,-1.322c-0.333,-0.193 -0.751,-0.468 -1.038,-0.884c-0.288,-0.418 -0.4,-0.902 -0.478,-1.364c-0.342,-2.059 -0.197,-4.678 -0.082,-6.784l0.128,-2.294c0.249,-4.372 0.507,-8.894 0.05,-13.293l-0.06,-0.558c-0.161,-1.512 -0.329,-3.075 -0.21,-4.635c0.157,-2.04 0.813,-3.769 1.897,-4.998c1.302,-1.477 3.105,-2.348 5.36,-2.589c1.681,-0.18 3.371,-0.037 5.008,0.103l1.017,0.084c3.271,0.254 8.113,0.491 12.377,-0.336c2.744,-0.532 6.104,-0.299 9.464,0.659c0.68,0.194 1.61,0.46 2.296,1.09c0.616,0.567 0.956,1.35 1.227,2.038c0.724,1.841 0.995,3.775 1.182,5.591c0.148,1.44 0.091,2.895 0.036,4.301c-0.109,2.757 -0.149,5.561 -0.189,8.271c-0.039,2.708 -0.079,5.508 -0.188,8.268l-0.005,0.118c-0.06,1.505 -0.141,3.567 -0.78,4.938c-0.979,2.101 -3.245,3.649 -6.062,4.144c-0.853,0.15 -1.714,0.207 -2.572,0.207zM19.396,42.164c3.398,0 6.811,0.169 10.187,0.506l0.704,0.071c2.085,0.215 4.239,0.437 6.288,0.076c2.495,-0.438 4.486,-1.776 5.328,-3.581c0.555,-1.189 0.631,-3.136 0.688,-4.557l0.004,-0.117c0.108,-2.748 0.148,-5.541 0.188,-8.243c0.04,-2.717 0.08,-5.526 0.189,-8.296c0.055,-1.371 0.11,-2.789 -0.03,-4.16c-0.18,-1.744 -0.439,-3.598 -1.119,-5.327c-0.239,-0.611 -0.512,-1.244 -0.973,-1.667c-0.472,-0.435 -1.136,-0.648 -1.893,-0.865c-3.21,-0.913 -6.404,-1.142 -8.998,-0.638v0c-4.382,0.851 -9.315,0.608 -12.645,0.351l-1.024,-0.084c-1.589,-0.134 -3.231,-0.273 -4.816,-0.104c-1.999,0.213 -3.586,0.973 -4.718,2.256c-1.187,1.346 -1.552,3.143 -1.65,4.412c-0.111,1.468 0.051,2.985 0.207,4.453l0.06,0.56c0.466,4.479 0.206,9.042 -0.046,13.453l-0.127,2.293c-0.113,2.056 -0.254,4.613 0.069,6.562c0.067,0.401 0.146,0.719 0.313,0.961c0.174,0.251 0.46,0.438 0.718,0.587c2.47,1.434 5.834,1.305 8.808,1.188l0.404,-0.016c1.29,-0.05 2.586,-0.074 3.884,-0.074z" fill="#010101"></path><path d="M35.32,13c-1.18,-1.71 -3.54,-2.45 -5.61,-2.53c-4.94,-0.2 -7.83,1.87 -9,5.53c-0.21,0.67 -0.1,2.09 -0.19,2.79c-0.12,0.88 -0.12,1.82 -0.1,2.73l-0.01,0.01c-2.57,0.16 -4.86,1.76 -6.32,3.31c-0.4,0.44 -0.77,0.93 -1.02,1.47c-0.42,0.93 -0.47,1.99 -0.52,3.01c-0.04,0.86 -0.07,1.73 0.11,2.57c0.23,1.04 1.09,4.13 3.38,4.99c2.19,0.82 4.69,0.88 6.9,0.12c2.21,-0.76 3.93,-2.46 4.47,-4.73c0.19,-0.83 0.24,-2.05 0.25,-2.89c0.01,-0.94 -0.06,-2.24 -0.06,-3.18l0.41,-0.03c1.91,-0.17 4.3,-0.75 5.74,-2.01c1.81,-1.59 2.7,-4.22 2.72,-6.63c0.01,-1.58 -0.25,-3.23 -1.15,-4.53zM23.99,32.71c-0.31,0.5 -0.79,0.89 -1.31,1.16c-1.36,0.71 -3.34,0.68 -4.67,-0.06c-1.33,-0.74 -2.25,-2.17 -2.37,-3.69c-0.06,-0.87 0.11,-1.73 0.37,-2.55c0.13,-0.38 0.27,-0.77 0.5,-1.1c0.66,-0.97 2.52,-1.97 3.89,-1.97l0.17,-0.03c0.07,2.01 0,4.05 -0.03,6.03c0.7,-0.04 2.92,-0.08 3.61,0.02c0,0 0.31,1.43 -0.16,2.19zM32.79,20.25c-0.27,0.92 -1.01,1.65 -1.85,2.13c-0.83,0.47 -2.08,0.9 -3.26,1.01h-0.01c-0.02,-1.83 -0.07,-3.65 -0.17,-5.42c-0.01,-0.12 -0.03,-0.26 -0.13,-0.33c-0.09,-0.06 -0.2,-0.02 -0.31,-0.01c-1.04,0.05 -1.52,0.01 -2.68,-0.02c0,0 -0.08,-0.42 0.01,-0.71c0.32,-1.08 1.03,-2.1 2.07,-2.52c0.46,-0.18 0.96,-0.24 1.45,-0.27c0.94,-0.06 1.92,-0.03 2.75,0.39c1.48,0.75 2.13,2.53 2.25,4.18c0.03,0.53 0.03,1.07 -0.12,1.57z" fill="#d6e5e5"></path><path d="M35.733,12.715c-1.118,-1.617 -3.361,-2.646 -6.002,-2.75c-4.941,-0.195 -8.211,1.84 -9.5,5.884c-0.151,0.476 -0.159,1.181 -0.167,1.863c-0.005,0.386 -0.007,0.751 -0.042,1.008c-0.107,0.776 -0.123,1.588 -0.115,2.381c-3.032,0.376 -5.314,2.474 -6.179,3.403c-0.506,0.544 -0.87,1.067 -1.111,1.601c-0.47,1.033 -0.521,2.182 -0.564,3.195c-0.038,0.836 -0.08,1.783 0.122,2.694c0.289,1.302 1.226,4.43 3.691,5.353c1.219,0.456 2.526,0.685 3.824,0.685c1.17,0 2.331,-0.186 3.413,-0.559c2.442,-0.842 4.232,-2.745 4.789,-5.092c0.163,-0.684 0.252,-1.694 0.264,-3.001c0.009,-0.915 0.016,-1.824 0.02,-2.728c1.263,-0.118 4.118,-0.551 5.905,-2.12c1.789,-1.57 2.868,-4.187 2.888,-6.998c0.013,-2.021 -0.391,-3.597 -1.236,-4.819zM27.996,17.943c-0.007,-0.127 -0.028,-0.513 -0.357,-0.724c-0.219,-0.142 -0.439,-0.112 -0.602,-0.091c-0.832,0.042 -1.297,0.026 -2.069,0l-0.115,-0.004c0.008,-0.028 0.01,-0.057 0.019,-0.085c0.313,-1.053 0.975,-1.872 1.772,-2.191c0.407,-0.162 0.867,-0.212 1.305,-0.241c0.748,-0.051 1.708,-0.057 2.488,0.339c1.107,0.563 1.845,1.972 1.972,3.768c0.028,0.401 0.043,0.924 -0.099,1.396c-0.211,0.713 -0.784,1.362 -1.612,1.83c-0.586,0.33 -1.526,0.696 -2.54,0.869c-0.024,-1.649 -0.069,-3.277 -0.162,-4.866zM20.066,29.112l-0.024,1.379c-0.002,0.138 0.054,0.271 0.153,0.367c0.099,0.096 0.234,0.157 0.373,0.139c0.703,-0.035 2.678,-0.068 3.399,0.009c-0.042,0.512 -0.143,1.021 -0.4,1.438c-0.238,0.384 -0.626,0.724 -1.123,0.983c-1.205,0.629 -3.007,0.608 -4.192,-0.051c-1.182,-0.655 -2.011,-1.95 -2.111,-3.299c-0.053,-0.689 0.059,-1.438 0.351,-2.355c0.101,-0.316 0.229,-0.679 0.43,-0.973c0.496,-0.727 1.944,-1.584 3.16,-1.721c0.029,1.363 0.01,2.737 -0.016,4.084zM27.156,29.37c-0.011,1.216 -0.093,2.177 -0.236,2.78c-0.484,2.041 -1.994,3.636 -4.143,4.377c-2.066,0.711 -4.459,0.669 -6.562,-0.118c-2.063,-0.771 -2.867,-3.74 -3.064,-4.632c-0.174,-0.781 -0.136,-1.621 -0.1,-2.434c0.042,-0.968 0.086,-1.969 0.476,-2.826c0.196,-0.433 0.502,-0.869 0.934,-1.332c1.579,-1.698 3.587,-2.818 5.466,-3.089c0.002,0.058 0.003,0.118 0.005,0.175c0.057,0.579 0.096,1.166 0.122,1.757c-1.434,0.141 -3.238,1.1 -3.959,2.158c-0.272,0.4 -0.435,0.848 -0.557,1.232c-0.332,1.043 -0.458,1.912 -0.396,2.733c0.128,1.701 1.134,3.271 2.624,4.098c0.759,0.422 1.698,0.635 2.637,0.634c0.888,0 1.773,-0.189 2.504,-0.57c0.656,-0.343 1.179,-0.808 1.511,-1.345c0.606,-0.983 0.592,-2.165 0.579,-3.115c-0.021,-1.614 -0.111,-3.251 -0.199,-4.833c-0.088,-1.571 -0.178,-3.196 -0.198,-4.789c-0.009,-0.701 -0.01,-1.416 0.069,-2.112l0.266,0.009c0.772,0.025 1.249,0.044 2.071,0.003c0.205,3.591 0.188,7.366 0.15,11.239zM33.421,23.78c-1.087,0.956 -3.039,1.643 -5.245,1.865c0,-0.61 0.001,-1.22 -0.004,-1.824c1.034,-0.158 2.151,-0.521 3.017,-1.009c1.056,-0.596 1.795,-1.454 2.08,-2.415c0.187,-0.627 0.172,-1.267 0.138,-1.753c-0.073,-1.032 -0.466,-3.545 -2.517,-4.589c-0.999,-0.506 -2.132,-0.504 -3.008,-0.445c-0.52,0.035 -1.074,0.097 -1.609,0.312c-1.096,0.438 -1.956,1.471 -2.36,2.835c-0.343,1.159 -0.327,2.396 -0.313,3.489c0.021,1.613 0.111,3.249 0.199,4.831c0.088,1.572 0.178,3.197 0.198,4.791c0.001,0.043 0,0.091 0,0.135c-0.722,-0.062 -2.11,-0.049 -2.947,-0.023l0.016,-0.848c0.043,-2.294 0.088,-4.665 -0.137,-6.925c-0.031,-1.063 -0.065,-2.27 0.083,-3.352c0.042,-0.305 0.047,-0.707 0.052,-1.133c0.006,-0.58 0.014,-1.237 0.12,-1.57c1.154,-3.619 4.002,-5.381 8.508,-5.188c2.327,0.092 4.278,0.959 5.219,2.318c0.724,1.047 1.07,2.436 1.058,4.244c-0.018,2.495 -0.993,4.89 -2.548,6.254z" fill="#010101"></path></g></g></svg>