<svg xmlns="http://www.w3.org/2000/svg" xmlns:xlink="http://www.w3.org/1999/xlink" viewBox="0,0,256,256" width="48px" height="48px"><g fill="none" fill-rule="nonzero" stroke="none" stroke-width="1" stroke-linecap="butt" stroke-linejoin="miter" stroke-miterlimit="10" stroke-dasharray="" stroke-dashoffset="0" font-family="none" font-weight="none" font-size="none" text-anchor="none" style="mix-blend-mode: normal"><g transform="scale(5.33333,5.33333)"><path d="M6,10c0,-2.209 1.791,-4 4,-4h28c2.209,0 4,1.791 4,4v28c0,2.209 -1.791,4 -4,4h-28c-2.209,0 -4,-1.791 -4,-4z" fill="#fcc419"></path><path d="M24.25,9.5c-8.133,0 -14.75,6.617 -14.75,14.75c0,7.936 6.305,14.411 14.166,14.72c0.112,0.008 0.221,0.03 0.334,0.03c0.031,0 0.06,-0.007 0.091,-0.008c0.054,0 0.105,0.008 0.159,0.008c8.133,0 14.75,-6.617 14.75,-14.75c0,-8.133 -6.617,-14.75 -14.75,-14.75zM36.937,23h-4.977c-0.109,-2.01 -0.438,-3.884 -0.94,-5.552c1.057,-0.568 1.872,-1.268 2.382,-2.056c1.95,2.015 3.247,4.664 3.535,7.608zM25,12.196c1.376,0.506 2.607,2.022 3.503,4.162c-1.003,0.316 -2.186,0.536 -3.503,0.611zM28.227,12.144c1.327,0.437 2.552,1.09 3.648,1.912c-0.224,0.53 -0.755,1.056 -1.539,1.514c-0.581,-1.364 -1.294,-2.522 -2.109,-3.426zM23,12.196v4.773c-1.323,-0.075 -2.505,-0.295 -3.504,-0.61c0.897,-2.14 2.128,-3.657 3.504,-4.163zM17.665,15.567c-0.65,-0.381 -1.13,-0.806 -1.402,-1.24c0.977,-0.788 2.073,-1.431 3.256,-1.906c-0.711,0.857 -1.333,1.925 -1.854,3.146zM23,18.973v4.027h-4.95c0.103,-1.709 0.381,-3.319 0.792,-4.758c1.233,0.397 2.641,0.653 4.158,0.731zM23,25v5.029c-1.507,0.079 -2.916,0.338 -4.156,0.738c-0.492,-1.719 -0.79,-3.685 -0.832,-5.767zM23,32.033v4.771c-1.373,-0.504 -2.601,-2.015 -3.497,-4.147c1.005,-0.321 2.186,-0.546 3.497,-0.624zM18.965,35.839c-0.877,-0.402 -1.698,-0.9 -2.455,-1.481c0.281,-0.318 0.672,-0.626 1.161,-0.911c0.379,0.887 0.811,1.691 1.294,2.392zM25,36.804v-4.771c1.316,0.077 2.497,0.3 3.5,0.618c-0.897,2.135 -2.126,3.648 -3.5,4.153zM30.332,33.44c0.61,0.356 1.063,0.751 1.343,1.154c-0.879,0.633 -1.84,1.154 -2.866,1.549c0.574,-0.773 1.086,-1.68 1.523,-2.703zM25,30.028v-5.028h4.987c-0.042,2.08 -0.339,4.044 -0.83,5.761c-1.236,-0.398 -2.646,-0.654 -4.157,-0.733zM25,23v-4.027c1.519,-0.079 2.923,-0.343 4.155,-0.743c0.413,1.442 0.692,3.057 0.795,4.77zM14.806,15.714c0.512,0.665 1.255,1.253 2.171,1.744c-0.5,1.665 -0.828,3.537 -0.937,5.542h-4.477c0.273,-2.792 1.459,-5.314 3.243,-7.286zM11.538,25h4.475c0.043,2.384 0.382,4.607 0.965,6.547c-0.795,0.424 -1.457,0.922 -1.954,1.479c-2.015,-2.118 -3.304,-4.923 -3.486,-8.026zM33.209,33.308c-0.514,-0.676 -1.258,-1.275 -2.185,-1.77c0.582,-1.937 0.92,-4.158 0.963,-6.538h4.975c-0.19,3.24 -1.582,6.161 -3.753,8.308z" fill="#ffffff"></path></g></g></svg>