<svg xmlns="http://www.w3.org/2000/svg" xmlns:xlink="http://www.w3.org/1999/xlink" viewBox="0,0,255.99538,255.99538" width="40px" height="40px"><g fill="none" fill-rule="nonzero" stroke="none" stroke-width="1" stroke-linecap="butt" stroke-linejoin="miter" stroke-miterlimit="10" stroke-dasharray="" stroke-dashoffset="0" font-family="none" font-weight="none" font-size="none" text-anchor="none" style="mix-blend-mode: normal"><g transform="scale(6.4,6.4)"><rect x="2.5" y="2.5" width="35" height="35" fill="#dd3ec5"></rect><path d="M38,38h-36v-36h36zM3,37h34v-34h-34z" fill="#8b75a1"></path><circle cx="20.005" cy="17" r="3" fill="#ffffff"></circle><path d="M14.005,18c0,-3.309 2.691,-6 6,-6c3.309,0 6,2.691 6,6c0,1.611 -0.642,3.073 -1.679,4.152c0.429,0.566 0.742,1.201 0.923,1.875c1.685,-1.468 2.756,-3.623 2.756,-6.027c0,-4.411 -3.589,-8 -8,-8c-4.411,0 -8,3.589 -8,8c0,2.404 1.071,4.559 2.756,6.027c0.18,-0.674 0.493,-1.309 0.923,-1.875c-1.037,-1.079 -1.679,-2.541 -1.679,-4.152z" fill="#ffffff"></path><path d="M20.005,6c-6.617,0 -12,5.383 -12,12c0,4.847 2.894,9.022 7.041,10.914l-0.381,-2.474c-2.796,-1.775 -4.66,-4.891 -4.66,-8.44c0,-5.514 4.486,-10 10,-10c5.514,0 10,4.486 10,10c0,3.55 -1.865,6.665 -4.66,8.44l-0.381,2.474c4.146,-1.892 7.041,-6.067 7.041,-10.914c0,-6.617 -5.383,-12 -12,-12z" fill="#ffffff"></path><path d="M20.006,34h-0.002c-1.15,0 -2.128,-0.775 -2.303,-1.824l-1.088,-6.529c-0.32,-1.917 1.288,-3.647 3.39,-3.647h0.004c2.102,0 3.71,1.73 3.39,3.648l-1.088,6.529c-0.175,1.048 -1.153,1.823 -2.303,1.823z" fill="#ffffff"></path></g></g></svg>